M48
INCH
T10C0.042000
T11C0.035000
T12C0.041000
T13C0.038000
T14C0.030000
T15C0.037000
T16C0.125984
%
T10
X005353Y025763
X008333Y025763
X005353Y018763
X008333Y018763
X005333Y023743
X005333Y020763
X002333Y011763
X002333Y012763
X002333Y013763
T11
X006333Y011763
X007333Y011763
X018333Y015763
X019333Y015763
X020333Y015763
X018333Y024763
X019333Y024763
X020333Y024763
T12
X015333Y015763
X013333Y016763
X013333Y014763
X015333Y024763
X013333Y025763
X013333Y023763
T13
X002333Y025763
X002333Y026763
X002333Y018763
X002333Y017763
T14
X005333Y014763
X008333Y014763
T15
X031333Y025763
X031333Y024763
X031333Y023763
X031333Y022763
X031333Y021763
X031333Y020763
X031333Y019763
X031333Y018763
X031333Y017763
X031333Y016763
X025333Y016763
X025333Y017763
X025333Y018763
X025333Y019763
X025333Y020763
X025333Y021763
X025333Y022763
X025333Y023763
X025333Y024763
X025333Y025763
X013333Y018763
X017333Y018763
X013333Y027763
X017333Y027763
T16
X032640Y002236
X002325Y002236
X032640Y029007
X002325Y029007
T00
M30
