G04 MADE WITH FRITZING*
G04 WWW.FRITZING.ORG*
G04 DOUBLE SIDED*
G04 HOLES PLATED*
G04 CONTOUR ON CENTER OF CONTOUR VECTOR*
%ASAXBY*%
%FSLAX23Y23*%
%MOIN*%
%OFA0B0*%
%SFA1.0B1.0*%
%ADD10C,0.082000*%
%ADD11C,0.075000*%
%ADD12C,0.099000*%
%ADD13C,0.078000*%
%ADD14C,0.054000*%
%ADD15C,0.067000*%
%ADD16C,0.068000*%
%ADD17R,0.082000X0.082000*%
%ADD18R,0.075000X0.075000*%
%ADD19R,0.099000X0.099000*%
%ADD20R,0.078000X0.078000*%
%ADD21R,0.054000X0.054000*%
%ADD22R,0.067000X0.067000*%
%ADD23R,0.068000X0.068000*%
%ADD24C,0.024000*%
%LNCOPPER0*%
G90*
G70*
G54D10*
X233Y1376D03*
X233Y1276D03*
X233Y1176D03*
X533Y2076D03*
X533Y2374D03*
X833Y1876D03*
X535Y1876D03*
X833Y2576D03*
X535Y2576D03*
G54D11*
X2033Y2476D03*
X1933Y2476D03*
X1833Y2476D03*
X2033Y1576D03*
X1933Y1576D03*
X1833Y1576D03*
G54D12*
X1333Y2376D03*
X1333Y2576D03*
X1533Y2476D03*
X1333Y1476D03*
X1333Y1676D03*
X1533Y1576D03*
G54D13*
X233Y1776D03*
X233Y1876D03*
X233Y2676D03*
X233Y2576D03*
G54D11*
X833Y1176D03*
X733Y1176D03*
G54D14*
X833Y1476D03*
X533Y1476D03*
G54D15*
X1733Y2776D03*
X1333Y2776D03*
X1733Y1876D03*
X1333Y1876D03*
G54D16*
X3303Y1560D03*
X3303Y1639D03*
X3303Y1718D03*
X3303Y1797D03*
X3303Y1876D03*
X3303Y1955D03*
X3303Y2034D03*
X3303Y2113D03*
X3303Y2192D03*
X3303Y2271D03*
X2433Y2271D03*
X2433Y2192D03*
X2433Y2113D03*
X2433Y2034D03*
X2433Y1955D03*
X2433Y1876D03*
X2433Y1797D03*
X2433Y1718D03*
X2433Y1639D03*
X2433Y1560D03*
G54D17*
X233Y1376D03*
X533Y2075D03*
X834Y1876D03*
X834Y2576D03*
G54D18*
X1833Y2476D03*
X1833Y1576D03*
G54D19*
X1333Y2576D03*
X1333Y1676D03*
G54D20*
X233Y1776D03*
X233Y2676D03*
G54D18*
X833Y1176D03*
G54D21*
X833Y1476D03*
G54D22*
X1733Y2776D03*
X1733Y1876D03*
G54D23*
X3303Y1560D03*
G54D24*
X1933Y2774D02*
X1933Y2505D01*
D02*
X1763Y2776D02*
X1933Y2774D01*
D02*
X2033Y1548D02*
X2033Y1276D01*
D02*
X1333Y1276D02*
X1333Y1445D01*
D02*
X2033Y1276D02*
X1333Y1276D01*
D02*
X1933Y1876D02*
X1933Y1605D01*
D02*
X1734Y1878D02*
X1933Y1876D01*
D02*
X1748Y1902D02*
X1734Y1878D01*
D02*
X1805Y1576D02*
X1565Y1576D01*
D02*
X1805Y2476D02*
X1565Y2476D01*
D02*
X534Y2044D02*
X535Y1909D01*
D02*
X534Y2406D02*
X535Y2544D01*
D02*
X263Y2576D02*
X503Y2576D01*
D02*
X264Y1387D02*
X509Y1468D01*
D02*
X833Y2544D02*
X833Y1909D01*
D02*
X1952Y1598D02*
X1956Y1602D01*
X1956Y1602D02*
X2033Y1676D01*
D02*
X2033Y1676D02*
X2409Y1567D01*
D02*
X1333Y2747D02*
X1333Y2608D01*
D02*
X2233Y2176D02*
X2233Y2876D01*
D02*
X2409Y2121D02*
X2233Y2176D01*
D02*
X2233Y2876D02*
X1633Y2876D01*
D02*
X1633Y2876D02*
X1356Y2599D01*
D02*
X833Y1205D02*
X833Y1450D01*
D02*
X226Y1747D02*
X156Y1458D01*
X156Y1458D02*
X156Y1314D01*
X156Y1314D02*
X204Y1290D01*
D02*
X1302Y2376D02*
X1133Y2376D01*
D02*
X1133Y2376D02*
X1133Y1576D01*
D02*
X1133Y1576D02*
X1305Y1491D01*
D02*
X1933Y2076D02*
X2414Y1656D01*
D02*
X1933Y2448D02*
X1933Y2076D01*
G04 End of Copper0*
M02*