M48
INCH
T10C0.042000
T11C0.035000
T12C0.041000
T13C0.038000
T14C0.030000
T15C0.037000
T16C0.125984
T17C0.028000
%
T10
X005353Y025763
X008333Y025763
X005353Y018763
X008333Y018763
X005333Y023743
X005333Y020763
X002333Y011763
X002333Y012763
X002333Y013763
T11
X007333Y011763
X008333Y011763
X018333Y015763
X019333Y015763
X020333Y015763
X018333Y024763
X019333Y024763
X020333Y024763
T12
X015333Y015763
X013333Y016763
X013333Y014763
X015333Y024763
X013333Y025763
X013333Y023763
T13
X002333Y025763
X002333Y026763
X002333Y018763
X002333Y017763
T14
X005333Y014763
X008333Y014763
T15
X013333Y018763
X017333Y018763
X013333Y027763
X017333Y027763
T16
X002325Y029007
X032640Y029007
X002325Y002236
X032640Y002236
T17
X024333Y015603
X024333Y016393
X024333Y017183
X024333Y017973
X024333Y018763
X024333Y019553
X024333Y020343
X024333Y021133
X024333Y021923
X024333Y022713
X033033Y022713
X033033Y021923
X033033Y021133
X033033Y020343
X033033Y019553
X033033Y018763
X033033Y017973
X033033Y017183
X033033Y016393
X033033Y015603
T00
M30
